<svg width="24" height="24" viewBox="0 0 24 24" fill="none" xmlns="http://www.w3.org/2000/svg">
<path d="M9.36959 17.5098C6.27959 18.3698 11.2396 20.1498 15.1696 18.5098C14.7882 18.3614 14.4202 18.1808 14.0696 17.9698C12.7052 18.2804 11.2957 18.3414 9.90959 18.1498C8.59959 17.9998 9.36959 17.5098 9.36959 17.5098Z" fill="white"/>
<path d="M14.7001 15.8303C12.9402 16.2131 11.1289 16.3009 9.34012 16.0903C8.03012 15.9503 8.89012 15.3203 8.89012 15.3203C5.49012 16.4403 10.7801 17.7203 15.5301 16.3203C15.2213 16.2189 14.9381 16.0517 14.7001 15.8303V15.8303Z" fill="white"/>
<path d="M16.5202 6.09961C16.5202 6.09961 9.65022 7.80961 12.9302 11.5896C13.0582 11.743 13.1535 11.9209 13.2105 12.1124C13.2674 12.3039 13.2847 12.505 13.2613 12.7034C13.2379 12.9018 13.1743 13.0933 13.0744 13.2663C12.9745 13.4394 12.8404 13.5902 12.6802 13.7096C12.6802 13.7096 15.1402 12.4396 14.0102 10.8496C12.8802 9.25961 12.1502 8.62961 16.5202 6.09961Z" fill="white"/>
<path d="M18.1304 19.1396C18.1304 19.1396 18.6904 19.5996 17.5004 19.9596C15.2304 20.6496 8.07036 20.8596 6.08036 19.9596C5.36036 19.6496 6.70036 19.2196 7.08036 19.1296C7.30561 19.0714 7.53778 19.0445 7.77036 19.0496C6.97036 18.4896 2.62036 20.1496 5.56036 20.6296C13.6104 21.9996 20.2004 20.0696 18.1304 19.1396Z" fill="white"/>
<path d="M15.3696 14.2602C15.6636 14.0742 15.9712 13.9104 16.2896 13.7702C16.2896 13.7702 14.7796 14.0402 13.2896 14.1702C11.6873 14.3248 10.0747 14.3416 8.46957 14.2202C6.08957 13.9102 9.73957 13.0002 9.73957 13.0002C8.64117 12.9917 7.557 13.249 6.57957 13.7502C4.51957 14.7802 11.6696 15.2302 15.3696 14.2602Z" fill="white"/>
<path d="M16.2802 16.6998C16.2583 16.7337 16.2314 16.7641 16.2002 16.7898C21.2002 15.4698 19.3802 12.1398 16.9802 12.9798C16.8478 13.0285 16.7329 13.1155 16.6502 13.2298C16.6502 13.2298 16.7902 13.1798 17.0802 13.1098C18.3002 12.8598 20.0002 14.7398 16.2802 16.6998Z" fill="white"/>
<path d="M11.9996 13C11.2596 11.33 8.73956 9.86 11.9996 7.29C16.0896 4.08 13.9996 2 13.9996 2C14.8396 5.31 10.9996 6.31 9.65956 8.37C8.72956 9.78 10.1296 11.29 11.9996 13Z" fill="white"/>
<path d="M16.4095 21.3202C13.3883 21.8374 10.3052 21.8846 7.26953 21.4602C7.26953 21.4602 7.72953 21.8402 10.1095 21.9902C13.7195 22.2202 19.2595 21.8702 19.3995 20.1602C19.3995 20.1602 19.1395 20.8002 16.4095 21.3202Z" fill="white"/>
</svg>
