<svg width="150" height="150" viewBox="0 0 150 150" fill="none" xmlns="http://www.w3.org/2000/svg">
<path d="M140 75C140 110.899 110.899 140 75 140C39.1015 140 10 110.899 10 75C10 39.1015 39.1015 10 75 10C110.899 10 140 39.1015 140 75Z" fill="#002D57"/>
<path d="M114 75C114 96.5391 96.5391 114 75 114C53.4609 114 36 96.5391 36 75C36 53.4609 53.4609 36 75 36C96.5391 36 114 53.4609 114 75Z" fill="#7667CA"/>
<mask id="mask0_727_2" style="mask-type:alpha" maskUnits="userSpaceOnUse" x="10" y="10" width="130" height="130">
<path d="M140 75C140 110.899 110.899 140 75 140C39.1015 140 10 110.899 10 75C10 39.1015 39.1015 10 75 10C110.899 10 140 39.1015 140 75Z" fill="#001318"/>
</mask>
<g mask="url(#mask0_727_2)">
<path d="M-313.148 6.647C-98.7472 399.121 14.928 -135.932 429.542 215.037M-313.148 6.647C-98.7472 399.121 14.928 -135.932 429.542 215.037" stroke="#002D57" stroke-width="4"/>
<path d="M-313.148 -41.7124C-98.7472 350.762 14.928 -184.291 429.542 166.678M-313.148 -41.7124C-98.7472 350.762 14.928 -184.291 429.542 166.678" stroke="#002D57" stroke-width="4"/>
</g>
</svg>
