<svg width="116" height="116" viewBox="0 0 116 116" fill="none" xmlns="http://www.w3.org/2000/svg">
<path d="M114.249 1.80078V114.287H2.12793V1.80078H114.249ZM109.718 6.33203H6.65918V109.756H109.718V6.33203Z" fill="white"/>
<path d="M19.2129 25.5057C23.3223 24.758 28.8928 24.1973 36.3807 24.1973C44.5992 24.1973 50.5349 25.9728 54.4613 29.3371C58.1141 32.421 60.4885 37.3739 60.4885 43.2609C60.4885 49.2417 58.6622 54.101 55.2835 57.465C50.7175 62.0441 43.7775 64.2873 35.8326 64.2873C33.7324 64.2873 31.9061 64.1935 30.3536 63.8196V87.415H19.2129V25.5057ZM30.3536 54.7549C31.8148 55.2223 33.5498 55.3159 35.8326 55.3159C44.234 55.3159 49.3477 51.0171 49.3477 43.7281C49.3477 36.7196 44.5992 33.0749 36.8372 33.0749C33.7321 33.0749 31.5406 33.3554 30.3534 33.6356V54.7549H30.3536Z" fill="white"/>
<path d="M66.284 75.824C68.7497 77.4124 73.5898 79.188 77.6074 79.188C82.5388 79.188 84.7301 77.5074 84.7301 74.517C84.7301 71.433 82.9035 69.9381 77.4246 67.8821C68.7495 64.8915 65.1882 60.0326 65.1882 54.6125C65.1882 46.5757 71.6717 40.4082 81.9907 40.4082C86.9216 40.4082 91.2138 41.623 93.8617 43.1181L91.5786 51.1547C89.7523 50.0335 86.0997 48.5384 82.1731 48.5384C78.1552 48.5384 75.9635 50.5942 75.9635 53.3975C75.9635 56.2945 78.0637 57.6027 83.7255 59.7521C91.8528 62.6492 95.5056 66.8542 95.5967 73.5824C95.5967 81.8997 89.2953 87.4118 77.5157 87.4118C72.1282 87.4118 67.2879 86.1034 64.001 84.2342L66.284 75.824Z" fill="white"/>
</svg>
